<?xml version="1.0" encoding="utf-8"?>
<!-- Generator: Adobe Illustrator 21.1.0, SVG Export Plug-In . SVG Version: 6.00 Build 0)  -->
<svg version="1.1" id="Layer_1" xmlns="http://www.w3.org/2000/svg" xmlns:xlink="http://www.w3.org/1999/xlink" x="0px" y="0px"
	 viewBox="0 0 24 24" style="enable-background:new 0 0 24 24;" xml:space="preserve">
<style type="text/css">
	.st0{fill:#FFFFFF;}
</style>
<path class="st0" d="M17.3,7.3v1.3c0,0.3-0.2,0.5-0.5,0.5h-1.3c-0.3,0-0.5-0.2-0.5-0.5V7.3c0-0.3,0.2-0.5,0.5-0.5h1.3
	C17,6.8,17.3,7,17.3,7.3z M12,14.7c1.5,0,2.7-1.2,2.7-2.7S13.5,9.3,12,9.3c-1.5,0-2.7,1.2-2.7,2.7S10.5,14.7,12,14.7z M16.3,11.4
	c0,0.2,0,0.4,0,0.6c0,2.4-1.9,4.3-4.3,4.3S7.7,14.4,7.7,12c0-0.2,0-0.4,0-0.6c0-0.2,0.1-0.4,0.1-0.6H6.7v5.9c0,0.3,0.2,0.5,0.5,0.5
	h9.4c0.3,0,0.5-0.2,0.5-0.5v-5.9h-1.1C16.2,11,16.2,11.2,16.3,11.4z M24,12c0,6.6-5.4,12-12,12S0,18.6,0,12S5.4,0,12,0S24,5.4,24,12
	z M19,6.6C19,5.7,18.3,5,17.4,5H6.6C5.7,5,5,5.7,5,6.6v10.8C5,18.3,5.7,19,6.6,19h10.8c0.9,0,1.6-0.7,1.6-1.6C19,17.4,19,6.6,19,6.6
	z"/>
</svg>
